<svg width="84" height="29" viewBox="0 0 84 29" fill="none" xmlns="http://www.w3.org/2000/svg">
<path d="M7.52 28.6V0.399998H9.44V28.6H7.52ZM8.27 25.24C6.67 25.24 5.14 25 3.68 24.52C2.22 24.02 1.07 23.38 0.23 22.6L1.34 20.26C2.14 20.96 3.16 21.54 4.4 22C5.64 22.46 6.93 22.69 8.27 22.69C9.49 22.69 10.48 22.55 11.24 22.27C12 21.99 12.56 21.61 12.92 21.13C13.28 20.63 13.46 20.07 13.46 19.45C13.46 18.73 13.22 18.15 12.74 17.71C12.28 17.27 11.67 16.92 10.91 16.66C10.17 16.38 9.35 16.14 8.45 15.94C7.55 15.74 6.64 15.51 5.72 15.25C4.82 14.97 3.99 14.62 3.23 14.2C2.49 13.78 1.89 13.22 1.43 12.52C0.97 11.8 0.74 10.88 0.74 9.76C0.74 8.68 1.02 7.69 1.58 6.79C2.16 5.87 3.04 5.14 4.22 4.6C5.42 4.04 6.94 3.76 8.78 3.76C10 3.76 11.21 3.92 12.41 4.24C13.61 4.56 14.65 5.02 15.53 5.62L14.54 8.02C13.64 7.42 12.69 6.99 11.69 6.73C10.69 6.45 9.72 6.31 8.78 6.31C7.6 6.31 6.63 6.46 5.87 6.76C5.11 7.06 4.55 7.46 4.19 7.96C3.85 8.46 3.68 9.02 3.68 9.64C3.68 10.38 3.91 10.97 4.37 11.41C4.85 11.85 5.46 12.2 6.2 12.46C6.96 12.72 7.79 12.96 8.69 13.18C9.59 13.38 10.49 13.61 11.39 13.87C12.31 14.13 13.14 14.47 13.88 14.89C14.64 15.31 15.25 15.87 15.71 16.57C16.17 17.27 16.4 18.17 16.4 19.27C16.4 20.33 16.11 21.32 15.53 22.24C14.95 23.14 14.05 23.87 12.83 24.43C11.63 24.97 10.11 25.24 8.27 25.24ZM18.7428 25V22.96L27.2928 14.71C28.0528 13.99 28.6128 13.36 28.9728 12.82C29.3528 12.26 29.6028 11.75 29.7228 11.29C29.8628 10.81 29.9328 10.35 29.9328 9.91C29.9328 8.83 29.5528 7.98 28.7928 7.36C28.0328 6.74 26.9228 6.43 25.4628 6.43C24.3428 6.43 23.3328 6.62 22.4328 7C21.5328 7.36 20.7528 7.93 20.0928 8.71L18.0528 6.94C18.8528 5.92 19.9228 5.14 21.2628 4.6C22.6228 4.04 24.1128 3.76 25.7328 3.76C27.1928 3.76 28.4628 4 29.5428 4.48C30.6228 4.94 31.4528 5.61 32.0328 6.49C32.6328 7.37 32.9328 8.41 32.9328 9.61C32.9328 10.29 32.8428 10.96 32.6628 11.62C32.4828 12.28 32.1428 12.98 31.6428 13.72C31.1428 14.46 30.4228 15.29 29.4828 16.21L21.8628 23.56L21.1428 22.39H33.8328V25H18.7428ZM44.8501 25.24C43.2101 25.24 41.7401 24.82 40.4401 23.98C39.1601 23.14 38.1401 21.92 37.3801 20.32C36.6401 18.72 36.2701 16.78 36.2701 14.5C36.2701 12.22 36.6401 10.28 37.3801 8.68C38.1401 7.08 39.1601 5.86 40.4401 5.02C41.7401 4.18 43.2101 3.76 44.8501 3.76C46.4701 3.76 47.9301 4.18 49.2301 5.02C50.5301 5.86 51.5501 7.08 52.2901 8.68C53.0301 10.28 53.4001 12.22 53.4001 14.5C53.4001 16.78 53.0301 18.72 52.2901 20.32C51.5501 21.92 50.5301 23.14 49.2301 23.98C47.9301 24.82 46.4701 25.24 44.8501 25.24ZM44.8501 22.57C45.9501 22.57 46.9101 22.27 47.7301 21.67C48.5701 21.07 49.2201 20.17 49.6801 18.97C50.1601 17.77 50.4001 16.28 50.4001 14.5C50.4001 12.72 50.1601 11.23 49.6801 10.03C49.2201 8.83 48.5701 7.93 47.7301 7.33C46.9101 6.73 45.9501 6.43 44.8501 6.43C43.7501 6.43 42.7801 6.73 41.9401 7.33C41.1001 7.93 40.4401 8.83 39.9601 10.03C39.5001 11.23 39.2701 12.72 39.2701 14.5C39.2701 16.28 39.5001 17.77 39.9601 18.97C40.4401 20.17 41.1001 21.07 41.9401 21.67C42.7801 22.27 43.7501 22.57 44.8501 22.57ZM59.8198 25V5.2L61.1098 6.61H55.0798V4H62.7898V25H59.8198ZM76.2034 25.24C74.3434 25.24 72.7534 24.83 71.4334 24.01C70.1134 23.19 69.1034 22.01 68.4034 20.47C67.7234 18.91 67.3834 17.01 67.3834 14.77C67.3834 12.39 67.8034 10.38 68.6434 8.74C69.4834 7.1 70.6534 5.86 72.1534 5.02C73.6534 4.18 75.3734 3.76 77.3134 3.76C78.3134 3.76 79.2634 3.86 80.1634 4.06C81.0834 4.26 81.8734 4.57 82.5334 4.99L81.3934 7.33C80.8534 6.95 80.2334 6.69 79.5334 6.55C78.8534 6.41 78.1334 6.34 77.3734 6.34C75.2334 6.34 73.5334 7.01 72.2734 8.35C71.0134 9.67 70.3834 11.64 70.3834 14.26C70.3834 14.68 70.4034 15.18 70.4434 15.76C70.4834 16.34 70.5834 16.91 70.7434 17.47L69.7234 16.45C70.0234 15.53 70.4934 14.76 71.1334 14.14C71.7934 13.5 72.5734 13.03 73.4734 12.73C74.3934 12.41 75.3834 12.25 76.4434 12.25C77.8434 12.25 79.0834 12.51 80.1634 13.03C81.2434 13.55 82.0934 14.29 82.7134 15.25C83.3334 16.19 83.6434 17.31 83.6434 18.61C83.6434 19.95 83.3134 21.12 82.6534 22.12C81.9934 23.12 81.1034 23.89 79.9834 24.43C78.8634 24.97 77.6034 25.24 76.2034 25.24ZM76.0834 22.81C77.0034 22.81 77.8034 22.64 78.4834 22.3C79.1834 21.96 79.7334 21.49 80.1334 20.89C80.5334 20.27 80.7334 19.55 80.7334 18.73C80.7334 17.49 80.3034 16.51 79.4434 15.79C78.5834 15.05 77.4134 14.68 75.9334 14.68C74.9734 14.68 74.1334 14.86 73.4134 15.22C72.6934 15.58 72.1234 16.07 71.7034 16.69C71.3034 17.29 71.1034 17.98 71.1034 18.76C71.1034 19.48 71.2934 20.15 71.6734 20.77C72.0534 21.37 72.6134 21.86 73.3534 22.24C74.0934 22.62 75.0034 22.81 76.0834 22.81Z" fill="#2A90D9"/>
</svg>
