<svg width="165" height="40" viewBox="0 0 165 40" fill="none" xmlns="http://www.w3.org/2000/svg">
<path d="M8.52 34.6V6.4H10.44V34.6H8.52ZM9.27 31.24C7.67 31.24 6.14 31 4.68 30.52C3.22 30.02 2.07 29.38 1.23 28.6L2.34 26.26C3.14 26.96 4.16 27.54 5.4 28C6.64 28.46 7.93 28.69 9.27 28.69C10.49 28.69 11.48 28.55 12.24 28.27C13 27.99 13.56 27.61 13.92 27.13C14.28 26.63 14.46 26.07 14.46 25.45C14.46 24.73 14.22 24.15 13.74 23.71C13.28 23.27 12.67 22.92 11.91 22.66C11.17 22.38 10.35 22.14 9.45 21.94C8.55 21.74 7.64 21.51 6.72 21.25C5.82 20.97 4.99 20.62 4.23 20.2C3.49 19.78 2.89 19.22 2.43 18.52C1.97 17.8 1.74 16.88 1.74 15.76C1.74 14.68 2.02 13.69 2.58 12.79C3.16 11.87 4.04 11.14 5.22 10.6C6.42 10.04 7.94 9.76 9.78 9.76C11 9.76 12.21 9.92 13.41 10.24C14.61 10.56 15.65 11.02 16.53 11.62L15.54 14.02C14.64 13.42 13.69 12.99 12.69 12.73C11.69 12.45 10.72 12.31 9.78 12.31C8.6 12.31 7.63 12.46 6.87 12.76C6.11 13.06 5.55 13.46 5.19 13.96C4.85 14.46 4.68 15.02 4.68 15.64C4.68 16.38 4.91 16.97 5.37 17.41C5.85 17.85 6.46 18.2 7.2 18.46C7.96 18.72 8.79 18.96 9.69 19.18C10.59 19.38 11.49 19.61 12.39 19.87C13.31 20.13 14.14 20.47 14.88 20.89C15.64 21.31 16.25 21.87 16.71 22.57C17.17 23.27 17.4 24.17 17.4 25.27C17.4 26.33 17.11 27.32 16.53 28.24C15.95 29.14 15.05 29.87 13.83 30.43C12.63 30.97 11.11 31.24 9.27 31.24ZM19.7428 31V28.96L28.2928 20.71C29.0528 19.99 29.6128 19.36 29.9728 18.82C30.3528 18.26 30.6028 17.75 30.7228 17.29C30.8628 16.81 30.9328 16.35 30.9328 15.91C30.9328 14.83 30.5528 13.98 29.7928 13.36C29.0328 12.74 27.9228 12.43 26.4628 12.43C25.3428 12.43 24.3328 12.62 23.4328 13C22.5328 13.36 21.7528 13.93 21.0928 14.71L19.0528 12.94C19.8528 11.92 20.9228 11.14 22.2628 10.6C23.6228 10.04 25.1128 9.76 26.7328 9.76C28.1928 9.76 29.4628 10 30.5428 10.48C31.6228 10.94 32.4528 11.61 33.0328 12.49C33.6328 13.37 33.9328 14.41 33.9328 15.61C33.9328 16.29 33.8428 16.96 33.6628 17.62C33.4828 18.28 33.1428 18.98 32.6428 19.72C32.1428 20.46 31.4228 21.29 30.4828 22.21L22.8628 29.56L22.1428 28.39H34.8328V31H19.7428ZM45.8501 31.24C44.2101 31.24 42.7401 30.82 41.4401 29.98C40.1601 29.14 39.1401 27.92 38.3801 26.32C37.6401 24.72 37.2701 22.78 37.2701 20.5C37.2701 18.22 37.6401 16.28 38.3801 14.68C39.1401 13.08 40.1601 11.86 41.4401 11.02C42.7401 10.18 44.2101 9.76 45.8501 9.76C47.4701 9.76 48.9301 10.18 50.2301 11.02C51.5301 11.86 52.5501 13.08 53.2901 14.68C54.0301 16.28 54.4001 18.22 54.4001 20.5C54.4001 22.78 54.0301 24.72 53.2901 26.32C52.5501 27.92 51.5301 29.14 50.2301 29.98C48.9301 30.82 47.4701 31.24 45.8501 31.24ZM45.8501 28.57C46.9501 28.57 47.9101 28.27 48.7301 27.67C49.5701 27.07 50.2201 26.17 50.6801 24.97C51.1601 23.77 51.4001 22.28 51.4001 20.5C51.4001 18.72 51.1601 17.23 50.6801 16.03C50.2201 14.83 49.5701 13.93 48.7301 13.33C47.9101 12.73 46.9501 12.43 45.8501 12.43C44.7501 12.43 43.7801 12.73 42.9401 13.33C42.1001 13.93 41.4401 14.83 40.9601 16.03C40.5001 17.23 40.2701 18.72 40.2701 20.5C40.2701 22.28 40.5001 23.77 40.9601 24.97C41.4401 26.17 42.1001 27.07 42.9401 27.67C43.7801 28.27 44.7501 28.57 45.8501 28.57ZM60.8198 31V11.2L62.1098 12.61H56.0798V10H63.7898V31H60.8198ZM77.2034 31.24C75.3434 31.24 73.7534 30.83 72.4334 30.01C71.1134 29.19 70.1034 28.01 69.4034 26.47C68.7234 24.91 68.3834 23.01 68.3834 20.77C68.3834 18.39 68.8034 16.38 69.6434 14.74C70.4834 13.1 71.6534 11.86 73.1534 11.02C74.6534 10.18 76.3734 9.76 78.3134 9.76C79.3134 9.76 80.2634 9.86 81.1634 10.06C82.0834 10.26 82.8734 10.57 83.5334 10.99L82.3934 13.33C81.8534 12.95 81.2334 12.69 80.5334 12.55C79.8534 12.41 79.1334 12.34 78.3734 12.34C76.2334 12.34 74.5334 13.01 73.2734 14.35C72.0134 15.67 71.3834 17.64 71.3834 20.26C71.3834 20.68 71.4034 21.18 71.4434 21.76C71.4834 22.34 71.5834 22.91 71.7434 23.47L70.7234 22.45C71.0234 21.53 71.4934 20.76 72.1334 20.14C72.7934 19.5 73.5734 19.03 74.4734 18.73C75.3934 18.41 76.3834 18.25 77.4434 18.25C78.8434 18.25 80.0834 18.51 81.1634 19.03C82.2434 19.55 83.0934 20.29 83.7134 21.25C84.3334 22.19 84.6434 23.31 84.6434 24.61C84.6434 25.95 84.3134 27.12 83.6534 28.12C82.9934 29.12 82.1034 29.89 80.9834 30.43C79.8634 30.97 78.6034 31.24 77.2034 31.24ZM77.0834 28.81C78.0034 28.81 78.8034 28.64 79.4834 28.3C80.1834 27.96 80.7334 27.49 81.1334 26.89C81.5334 26.27 81.7334 25.55 81.7334 24.73C81.7334 23.49 81.3034 22.51 80.4434 21.79C79.5834 21.05 78.4134 20.68 76.9334 20.68C75.9734 20.68 75.1334 20.86 74.4134 21.22C73.6934 21.58 73.1234 22.07 72.7034 22.69C72.3034 23.29 72.1034 23.98 72.1034 24.76C72.1034 25.48 72.2934 26.15 72.6734 26.77C73.0534 27.37 73.6134 27.86 74.3534 28.24C75.0934 28.62 76.0034 28.81 77.0834 28.81Z" fill="#2A90D9"/>
<path d="M93.55 30.8L99.49 13.844H100.66L94.72 30.8H93.55ZM105.78 29.108C104.664 29.108 103.722 28.862 102.954 28.37C102.186 27.866 101.604 27.146 101.208 26.21C100.812 25.262 100.614 24.128 100.614 22.808C100.614 21.38 100.854 20.186 101.334 19.226C101.826 18.254 102.504 17.522 103.368 17.03C104.232 16.538 105.234 16.292 106.374 16.292C106.938 16.292 107.478 16.346 107.994 16.454C108.51 16.562 108.966 16.736 109.362 16.976L108.84 18.02C108.516 17.804 108.144 17.654 107.724 17.57C107.304 17.474 106.86 17.426 106.392 17.426C105.036 17.426 103.95 17.858 103.134 18.722C102.33 19.586 101.928 20.876 101.928 22.592C101.928 22.856 101.94 23.186 101.964 23.582C102 23.966 102.072 24.35 102.18 24.734L101.73 24.392C101.862 23.768 102.12 23.24 102.504 22.808C102.888 22.364 103.368 22.028 103.944 21.8C104.52 21.572 105.15 21.458 105.834 21.458C106.674 21.458 107.412 21.614 108.048 21.926C108.684 22.238 109.182 22.676 109.542 23.24C109.902 23.804 110.082 24.47 110.082 25.238C110.082 26.018 109.896 26.702 109.524 27.29C109.152 27.866 108.636 28.316 107.976 28.64C107.328 28.952 106.596 29.108 105.78 29.108ZM105.726 28.01C106.326 28.01 106.854 27.902 107.31 27.686C107.778 27.458 108.144 27.14 108.408 26.732C108.672 26.312 108.804 25.826 108.804 25.274C108.804 24.446 108.516 23.786 107.94 23.294C107.376 22.802 106.608 22.556 105.636 22.556C104.988 22.556 104.424 22.676 103.944 22.916C103.464 23.156 103.086 23.486 102.81 23.906C102.534 24.314 102.396 24.782 102.396 25.31C102.396 25.766 102.522 26.204 102.774 26.624C103.026 27.032 103.398 27.368 103.89 27.632C104.394 27.884 105.006 28.01 105.726 28.01ZM121.963 19.46C122.731 19.46 123.403 19.61 123.979 19.91C124.567 20.198 125.023 20.642 125.347 21.242C125.683 21.842 125.851 22.598 125.851 23.51V29H124.573V23.636C124.573 22.64 124.321 21.89 123.817 21.386C123.325 20.87 122.629 20.612 121.729 20.612C121.057 20.612 120.469 20.75 119.965 21.026C119.473 21.29 119.089 21.68 118.813 22.196C118.549 22.7 118.417 23.312 118.417 24.032V29H117.139V19.55H118.363V22.142L118.165 21.656C118.465 20.972 118.945 20.438 119.605 20.054C120.265 19.658 121.051 19.46 121.963 19.46ZM129.303 29V19.55H130.581V29H129.303ZM129.951 17.462C129.687 17.462 129.465 17.372 129.285 17.192C129.105 17.012 129.015 16.796 129.015 16.544C129.015 16.292 129.105 16.082 129.285 15.914C129.465 15.734 129.687 15.644 129.951 15.644C130.215 15.644 130.437 15.728 130.617 15.896C130.797 16.064 130.887 16.274 130.887 16.526C130.887 16.79 130.797 17.012 130.617 17.192C130.449 17.372 130.227 17.462 129.951 17.462ZM138.169 32.582C137.305 32.582 136.477 32.456 135.685 32.204C134.893 31.952 134.251 31.592 133.759 31.124L134.407 30.152C134.851 30.548 135.397 30.86 136.045 31.088C136.705 31.328 137.401 31.448 138.133 31.448C139.333 31.448 140.215 31.166 140.779 30.602C141.343 30.05 141.625 29.186 141.625 28.01V25.652L141.805 24.032L141.679 22.412V19.55H142.903V27.848C142.903 29.48 142.501 30.674 141.697 31.43C140.905 32.198 139.729 32.582 138.169 32.582ZM137.935 28.64C137.035 28.64 136.225 28.448 135.505 28.064C134.785 27.668 134.215 27.122 133.795 26.426C133.387 25.73 133.183 24.932 133.183 24.032C133.183 23.132 133.387 22.34 133.795 21.656C134.215 20.96 134.785 20.42 135.505 20.036C136.225 19.652 137.035 19.46 137.935 19.46C138.775 19.46 139.531 19.634 140.203 19.982C140.875 20.33 141.409 20.846 141.805 21.53C142.201 22.214 142.399 23.048 142.399 24.032C142.399 25.016 142.201 25.85 141.805 26.534C141.409 27.218 140.875 27.74 140.203 28.1C139.531 28.46 138.775 28.64 137.935 28.64ZM138.061 27.506C138.757 27.506 139.375 27.362 139.915 27.074C140.455 26.774 140.881 26.366 141.193 25.85C141.505 25.322 141.661 24.716 141.661 24.032C141.661 23.348 141.505 22.748 141.193 22.232C140.881 21.716 140.455 21.314 139.915 21.026C139.375 20.726 138.757 20.576 138.061 20.576C137.377 20.576 136.759 20.726 136.207 21.026C135.667 21.314 135.241 21.716 134.929 22.232C134.629 22.748 134.479 23.348 134.479 24.032C134.479 24.716 134.629 25.322 134.929 25.85C135.241 26.366 135.667 26.774 136.207 27.074C136.759 27.362 137.377 27.506 138.061 27.506ZM151.284 19.46C152.052 19.46 152.724 19.61 153.3 19.91C153.888 20.198 154.344 20.642 154.668 21.242C155.004 21.842 155.172 22.598 155.172 23.51V29H153.894V23.636C153.894 22.64 153.642 21.89 153.138 21.386C152.646 20.87 151.95 20.612 151.05 20.612C150.378 20.612 149.79 20.75 149.286 21.026C148.794 21.29 148.41 21.68 148.134 22.196C147.87 22.7 147.738 23.312 147.738 24.032V29H146.46V15.644H147.738V22.142L147.486 21.656C147.786 20.972 148.266 20.438 148.926 20.054C149.586 19.658 150.372 19.46 151.284 19.46ZM161.612 29.09C160.724 29.09 160.04 28.85 159.56 28.37C159.08 27.89 158.84 27.212 158.84 26.336V17.462H160.118V26.264C160.118 26.816 160.256 27.242 160.532 27.542C160.82 27.842 161.228 27.992 161.756 27.992C162.32 27.992 162.788 27.83 163.16 27.506L163.61 28.424C163.358 28.652 163.052 28.82 162.692 28.928C162.344 29.036 161.984 29.09 161.612 29.09ZM157.148 20.612V19.55H162.998V20.612H157.148Z" fill="#2A90D9"/>
</svg>
